<svg xmlns="http://www.w3.org/2000/svg" width="24" height="24" viewBox="0 0 24 24" fill="none" stroke="currentColor" stroke-width="2" stroke-linecap="round" stroke-linejoin="round"><path d="m12.83 2.18a2 2 0 0 0-1.66 0L2.6 6.08a1 1 0 0 0 0 1.83l8.58 3.91a2 2 0 0 0 1.66 0l8.58-3.9a1 1 0 0 0 0-1.83Z"/><path d="m22.54 12.43-1.07-.49a1 1 0 0 0-1.66.76v.01a1 1 0 0 0 .34.76l1.07.49a1 1 0 0 1 0 1.83l-8.58 3.91a2 2 0 0 1-1.66 0L2.6 15.79a1 1 0 0 1 0-1.83l1.07-.49a1 1 0 0 0-.34-1.76l-1.07.49"/><path d="m22.54 17.43-1.07-.49a1 1 0 0 0-1.66.76v.01a1 1 0 0 0 .34.76l1.07.49a1 1 0 0 1 0 1.83l-8.58 3.91a2 2 0 0 1-1.66 0L2.6 20.79a1 1 0 0 1 0-1.83l1.07-.49a1 1 0 0 0-.34-1.76l-1.07.49"/></svg>